inDegrees=no
num_controls=7
num_derivatives=13
num_iterations=37
num_multipliers=7
num_parameters=0
num_slacks=7
num_states=26
objective=0.466937
objective_accelerations=0.064626
objective_balance=0.000724
objective_effort=0.017504
objective_height=0.375334
objective_ligament=0.008749
solver_duration=535.243314
status=Solve_Succeeded
success=true
DataType=double
version=3
OpenSimVersion=4.5
endheader
time	/jointset/ground_pelvis/pelvis_tilt/value	/jointset/ground_pelvis/pelvis_tx/value	/jointset/ground_pelvis/pelvis_ty/value	/jointset/hip_l/hip_flexion_l/value	/jointset/hip_l/hip_adduction_l/value	/jointset/hip_l/hip_rotation_l/value	/jointset/back/lumbar_extension/value	/jointset/patellofemoral_l/patellar_flexion_l/value	/jointset/knee_l/knee_flexion_l/value	/jointset/knee_l/knee_adduction_l/value	/jointset/knee_l/knee_rotation_l/value	/jointset/ankle_l/ankle_angle_l/value	/jointset/subtalar_l/subtalar_angle_l/value	/jointset/ground_pelvis/pelvis_tilt/speed	/jointset/ground_pelvis/pelvis_tx/speed	/jointset/ground_pelvis/pelvis_ty/speed	/jointset/hip_l/hip_flexion_l/speed	/jointset/hip_l/hip_adduction_l/speed	/jointset/hip_l/hip_rotation_l/speed	/jointset/back/lumbar_extension/speed	/jointset/patellofemoral_l/patellar_flexion_l/speed	/jointset/knee_l/knee_flexion_l/speed	/jointset/knee_l/knee_adduction_l/speed	/jointset/knee_l/knee_rotation_l/speed	/jointset/ankle_l/ankle_angle_l/speed	/jointset/subtalar_l/subtalar_angle_l/speed	/forceset/tau_hip_flexion_l	/forceset/tau_hip_adduction_l	/forceset/tau_hip_rotation_l	/forceset/tau_knee_flexion_l	/forceset/tau_ankle_angle_l	/forceset/tau_subtalar_angle_l	/forceset/tau_lumbar_extension	lambda_cid13_p0	lambda_cid13_p1	lambda_cid13_p2	lambda_cid13_p3	lambda_cid13_p4	lambda_cid13_p5	lambda_cid14_p0	/jointset/ground_pelvis/pelvis_tilt/accel	/jointset/ground_pelvis/pelvis_tx/accel	/jointset/ground_pelvis/pelvis_ty/accel	/jointset/hip_l/hip_flexion_l/accel	/jointset/hip_l/hip_adduction_l/accel	/jointset/hip_l/hip_rotation_l/accel	/jointset/back/lumbar_extension/accel	/jointset/patellofemoral_l/patellar_flexion_l/accel	/jointset/knee_l/knee_flexion_l/accel	/jointset/knee_l/knee_adduction_l/accel	/jointset/knee_l/knee_rotation_l/accel	/jointset/ankle_l/ankle_angle_l/accel	/jointset/subtalar_l/subtalar_angle_l/accel	gamma_cid13_p0	gamma_cid13_p1	gamma_cid13_p2	gamma_cid13_p3	gamma_cid13_p4	gamma_cid13_p5	gamma_cid14_p0
1.5	-0.363673553464921	0.04398193575859664	0.7909315163514488	1.031894765404792	-0.3467755895362523	-0.0706430540697516	-0.3312329340507413	0.8045841872188525	0.8045841872188217	-0.006108904152257746	-0.1707546920184072	0.2570884436594521	0.1627332808280753	0.5603000332309097	0.2869972075318816	0.5017695644211325	-2.393348650176946	0.02598304790987431	-0.5907823351545635	0.6101485223977174	-2.170728616799508	-2.170728616799452	-0.2641940276046994	0.03416484506732161	-0.4945318369203759	-0.1622484729049188	-0.1418034786078495	0.08492565906695203	-0.005785352600530277	-0.116460300388909	-0.02901010589779749	-0.01558879237837228	0.131709483892353	-35.04529839115605	13.47230926799923	-3.075280315230774	-0.3248283948250052	-429.0577854690218	-20.77815862183353	-10.61168498520624	0.6421385838946753	0.5519982758739886	-0.7637053918871722	-1.229745075064278	0.3427358708405318	-0.4184823661774996	1.657930014468676	-1.119682130920027	-1.119682130919993	-0.1726484158557861	0.21077660965124	-0.5719416808842195	0.3541790972431869	6.376769199799982e-07	-7.235589116997115e-07	-6.18005281493633e-06	-3.644114389760213e-07	1.107365579763289e-06	9.156423801541006e-07	7.082191001496879e-07
1.51	-0.3580386839749283	0.04687909011255104	0.7959100466612725	1.007901707793815	-0.3465006228588084	-0.07656714258786831	-0.3250502945024721	0.782823213716547	0.7828232137165916	-0.008765933445305241	-0.1704019443511007	0.2521145743793664	0.1611258096793974	0.5665687097668451	0.2923838173552693	0.493826258695478	-2.404905446254259	0.02903651290353904	-0.5941342780624702	0.6262930059659065	-2.181149409012485	-2.181149409012491	-0.2670393796436362	0.03630911618697704	-0.5001454454886198	-0.1591765346482525	-0.1371817792069008	0.0840039565077912	-0.005198872996816523	-0.1130972989848221	-0.0295750101941548	-0.0164162329940379	0.1278921107513163	-35.07824437156059	13.568582863347	-2.78353594861563	0.04434478634415078	-425.7307284123304	-20.63166056889599	-11.50643805382331	0.6035315265073801	0.5244552698043725	-0.8259444878877708	-1.064935513967845	0.2914929731098929	-0.3076702275212351	1.579750334351158	-0.9559143988972764	-0.9559143989066351	-0.3148626934359452	0.2038221067961376	-0.5415562529461272	0.294839818050145	6.260508602815375e-07	-4.78544669320312e-07	-6.001926822748306e-06	-3.224939396544752e-07	1.150361402807978e-06	1.181965994580231e-06	6.956291763820786e-07
1.52	-0.3523442678519689	0.04982860315158599	0.8008058836488416	0.9838038244940922	-0.3461941532995627	-0.08252757452995574	-0.3187088015572416	0.7609675049656913	0.7609675049656691	-0.01144629307798779	-0.1700302400237684	0.2470874718519753	0.1595512856389155	0.5722093598253718	0.2974689445479931	0.4852308999705688	-2.414313787927687	0.03228362427648373	-0.5980510199473485	0.6419192017883864	-2.189675666521896	-2.189675666521964	-0.2688600955035214	0.03795617705356084	-0.5051784863829319	-0.1556590512647117	-0.132560079805797	0.08308225394845752	-0.004612393394041884	-0.1097342975807685	-0.03013991449057828	-0.01724367360993541	0.1240747376104777	-35.10694178237728	13.66239725510659	-2.489437885894783	0.3677968246239259	-422.331877566874	-20.58027748176861	-12.39833255926724	0.516533288412982	0.4917017497411481	-0.8941159917380853	-0.8000541942872863	0.3814651466965244	-0.5314421615719225	1.554272465326828	-0.740775190206744	-0.740775190206757	0.03227881995457078	0.1113345590369137	-0.455828146097953	0.4432881226180896	6.03154731561519e-07	-3.823145756366923e-08	-5.799751685668942e-06	-2.52029210421902e-07	1.170934654287755e-06	1.473307928621806e-06	7.011149323664481e-07
1.53	-0.3465965148250735	0.05282741299379545	0.8056126466786876	0.9596222632203254	-0.3458548437801067	-0.08852693392692446	-0.3122142168263731	0.7390358033728018	0.7390358033727902	-0.01414284966727505	-0.1696428134541793	0.2420127087228815	0.158013253544621	0.5772336576608121	0.3022367959745088	0.4760236698427768	-2.421652380276756	0.0355521424550558	-0.6014514855824031	0.6568629541078558	-2.19635548896517	-2.196355488965196	-0.2706560557449968	0.03976291943439099	-0.5096977147322787	-0.1519626012291033	-0.1276735172353831	0.08169968768287514	-0.003864369827654854	-0.1071018833689345	-0.03010567499994712	-0.01820872631780019	0.1200484809428707	-34.97914699932841	13.82357952288673	-2.246067116276789	0.6574451027727651	-419.2573519192685	-20.55683177240072	-13.28689497320137	0.4793063505870607	0.460873196741087	-0.9484987578659722	-0.6487596158077861	0.2963251213085737	-0.1881644898907546	1.444208073543358	-0.5853591130378774	-0.5853591130316863	-0.3163175748589853	0.2494212843313972	-0.4384376154258556	0.3310337199683404	5.682841545060957e-07	6.095869091562921e-07	-5.572024332142528e-06	-1.51233049408863e-07	1.167683923479811e-06	1.79123182725479e-06	7.258060980872946e-07
